<!-- Generator: Adobe Illustrator 18.0.0, SVG Export Plug-In  -->
<svg version="1.1"
	 xmlns="http://www.w3.org/2000/svg" xmlns:xlink="http://www.w3.org/1999/xlink" xmlns:a="http://ns.adobe.com/AdobeSVGViewerExtensions/3.0/"
	 x="0px" y="0px" width="1259.9px" height="872.9px" viewBox="0 0 1259.9 872.9" enable-background="new 0 0 1259.9 872.9"
	 xml:space="preserve">
<defs>
</defs>
<linearGradient id="SVGID_1_" gradientUnits="userSpaceOnUse" x1="221.575" y1="708.1978" x2="-97.9488" y2="351.1874">
	<stop  offset="0.2364" style="stop-color:#DBF0FA"/>
	<stop  offset="1" style="stop-color:#7BC7EB"/>
</linearGradient>
<path fill="url(#SVGID_1_)" d="M0,487.5v82.1c139.5,97.7,277.7,188.5,414.1,287.4c9.4,4.5,17.9,10,26,15.9h26.5
	C330,760.9,198.5,651.2,57.9,536.4C38.4,519.7,19.1,503.5,0,487.5z"/>
<linearGradient id="SVGID_2_" gradientUnits="userSpaceOnUse" x1="305.0613" y1="732.5184" x2="12.895" y2="275.1098">
	<stop  offset="0.2364" style="stop-color:#DBF0FA"/>
	<stop  offset="1" style="stop-color:#7BC7EB"/>
</linearGradient>
<path fill="url(#SVGID_2_)" d="M0,407.7c20.7,20.4,41.3,40.8,62,61.3c24.2,23.9,48.4,47.8,72.6,71.7c25.3,25,50.6,50,75.9,75
	c26.2,25.9,52.3,51.7,78.5,77.6c26.8,26.5,53.6,53,80.5,79.5c27.3,27,54.6,53.9,81.8,80.9c6.5,6.4,13,12.8,19.5,19.3h21.6
	C325.6,675.8,165.3,481.4,0,282.6V407.7z"/>
<linearGradient id="SVGID_3_" gradientUnits="userSpaceOnUse" x1="227.3811" y1="671.5511" x2="-58.8496" y2="360.211">
	<stop  offset="0.2364" style="stop-color:#DBF0FA"/>
	<stop  offset="1" style="stop-color:#7BC7EB"/>
</linearGradient>
<path fill="url(#SVGID_3_)" d="M369.4,772.8c-26.8-26.5-53.6-53-80.5-79.5c-26.2-25.9-52.3-51.7-78.5-77.6c-25.3-25-50.6-50-75.9-75
	C110.4,516.8,86.2,492.9,62,469c-20.7-20.4-41.3-40.8-62-61.3v79.8c19.1,16,38.4,32.1,57.9,48.9C198.5,651.2,330,760.9,466.6,872.9
	h4.1c-6.5-6.4-13-12.8-19.5-19.3C423.9,826.7,396.7,799.8,369.4,772.8z"/>
<linearGradient id="SVGID_4_" gradientUnits="userSpaceOnUse" x1="234.4395" y1="552.4522" x2="6.5467" y2="117.5933">
	<stop  offset="0.2364" style="stop-color:#DBF0FA"/>
	<stop  offset="1" style="stop-color:#7BC7EB"/>
</linearGradient>
<path fill="url(#SVGID_4_)" d="M145.7,355.2c-7.8-12.4-15.6-24.8-23.3-37.2C97,280.8,71.8,245.1,46.4,208
	C31,184.4,15.5,160.8,0,137.2v145.5c165.3,198.8,325.6,393.2,492.3,590.3h3.1C387.2,713.4,281.1,554.1,171.3,393.7
	C163.5,381.3,155.5,367.4,145.7,355.2z"/>
<linearGradient id="SVGID_5_" gradientUnits="userSpaceOnUse" x1="275.8047" y1="770.248" x2="219.4894" y2="-18.1692">
	<stop  offset="0.2364" style="stop-color:#DBF0FA"/>
	<stop  offset="1" style="stop-color:#7BC7EB"/>
</linearGradient>
<path fill="url(#SVGID_5_)" d="M467.5,783.1c-10.3-15.7-18.5-31.4-24.7-47.1c-32.9-64.2-67.9-126.9-100.9-192.5
	c-2.1-4.3-6.2-7.1-8.2-11.4C240.6,352.6,147.6,176.5,55.1,0H0v137.2c15.5,23.6,31,47.2,46.4,70.9c25.4,37.1,50.6,72.8,76,109.9
	c7.8,12.4,15.6,24.8,23.3,37.2c9.8,12.3,17.8,26.1,25.6,38.5c109.8,160.4,215.9,319.7,324.1,479.2h18.3c-1-1.4-2-2.8-3-4.2
	C496.3,840.2,481.9,811.7,467.5,783.1z"/>
<linearGradient id="SVGID_6_" gradientUnits="userSpaceOnUse" x1="73.1358" y1="1017.1555" x2="77.4154" y2="-95.3682">
	<stop  offset="0.2364" style="stop-color:#DBF0FA"/>
	<stop  offset="1" style="stop-color:#7BC7EB"/>
</linearGradient>
<path fill="url(#SVGID_6_)" d="M0,872.9h147.5C98.3,863.9,49.2,854.8,0,845.8V872.9z"/>
<linearGradient id="SVGID_7_" gradientUnits="userSpaceOnUse" x1="215.1206" y1="965.9752" x2="219.3922" y2="-144.4729">
	<stop  offset="0.2364" style="stop-color:#DBF0FA"/>
	<stop  offset="1" style="stop-color:#7BC7EB"/>
</linearGradient>
<path fill="url(#SVGID_7_)" d="M0,682.8c14.1,6.9,28.5,13.8,43.3,20.8c116.6,55.9,226.5,107.9,343.5,166.6c1.9,0.9,3.9,1.8,5.9,2.8
	h39.2C288.3,789.4,148.7,707.1,0,622.7V682.8z"/>
<linearGradient id="SVGID_8_" gradientUnits="userSpaceOnUse" x1="301.7879" y1="658.8859" x2="245.5416" y2="-128.5663">
	<stop  offset="0.2364" style="stop-color:#DBF0FA"/>
	<stop  offset="1" style="stop-color:#7BC7EB"/>
</linearGradient>
<path fill="url(#SVGID_8_)" d="M186.2,23.4c-2.7-7.9-5.3-15.6-8-23.4H55.1c92.5,176.5,185.6,352.6,278.6,532.1
	c2.1,4.3,6.2,7.1,8.2,11.4c32.9,65.6,67.9,128.4,100.9,192.5c6.2,15.7,14.4,31.4,24.7,47.1c14.4,28.5,28.8,57,43.2,85.6
	c1,1.4,2,2.8,3,4.2h3c-102.7-267.3-207.3-526.6-310-802.1C200.4,54,192.5,40.2,186.2,23.4z"/>
<linearGradient id="SVGID_9_" gradientUnits="userSpaceOnUse" x1="157.1696" y1="1017.0533" x2="161.4418" y2="-93.5547">
	<stop  offset="0.2364" style="stop-color:#DBF0FA"/>
	<stop  offset="1" style="stop-color:#7BC7EB"/>
</linearGradient>
<path fill="url(#SVGID_9_)" d="M222.2,843c-60.5-20.6-118.4-37.2-178.9-57.8c-8.7-3.8-17.3-6.1-26.1-9.9c-5.8-1.6-11.6-3.3-17.3-5
	v75.4c49.2,9,98.3,18.1,147.5,27.2h168.4c-18.9-6-37.9-12.3-57.2-19.3C245.8,850.1,235,846.5,222.2,843z"/>
<linearGradient id="SVGID_10_" gradientUnits="userSpaceOnUse" x1="188.5974" y1="1016.8688" x2="192.8664" y2="-92.9079">
	<stop  offset="0.2364" style="stop-color:#DBF0FA"/>
	<stop  offset="1" style="stop-color:#7BC7EB"/>
</linearGradient>
<path fill="url(#SVGID_10_)" d="M148.4,781.7c-8.2-4.3-16.5-7.1-24.7-11.4C82,753.6,40.8,737.1,0,720.7v49.6
	c5.7,1.7,11.4,3.4,17.3,5c8.7,3.8,17.3,6.1,26.1,9.9c60.5,20.6,118.4,37.2,178.9,57.8c12.8,3.5,23.6,7.1,36.5,10.7
	c19.3,7,38.2,13.3,57.2,19.3h63c-62-24.9-122.8-49.4-187.2-75.5C177.3,791.7,162.8,787.4,148.4,781.7z"/>
<linearGradient id="SVGID_11_" gradientUnits="userSpaceOnUse" x1="195.4315" y1="1016.8352" x2="199.701" y2="-93.0533">
	<stop  offset="0.2364" style="stop-color:#DBF0FA"/>
	<stop  offset="1" style="stop-color:#7BC7EB"/>
</linearGradient>
<path fill="url(#SVGID_11_)" d="M43.3,703.6c-14.8-7-29.2-13.9-43.3-20.8v37.9c40.8,16.3,82,32.8,123.7,49.6
	c8.2,4.3,16.5,7.1,24.7,11.4c14.4,5.7,28.8,10,43.2,15.7c64.4,26.1,125.2,50.6,187.2,75.5h13.8c-2-0.9-3.9-1.8-5.9-2.8
	C269.8,811.5,159.9,759.5,43.3,703.6z"/>
<linearGradient id="SVGID_12_" gradientUnits="userSpaceOnUse" x1="219.2802" y1="921.2725" x2="223.5526" y2="-189.3714">
	<stop  offset="0.2364" style="stop-color:#DBF0FA"/>
	<stop  offset="1" style="stop-color:#7BC7EB"/>
</linearGradient>
<path fill="url(#SVGID_12_)" d="M414.1,857.1C277.7,758.2,139.5,667.3,0,569.6v53c148.7,84.4,288.3,166.8,431.9,250.3h8.2
	C431.9,867.1,423.5,861.6,414.1,857.1z"/>
<linearGradient id="SVGID_13_" gradientUnits="userSpaceOnUse" x1="858.1274" y1="761.5907" x2="1257.276" y2="309.0526">
	<stop  offset="0.2364" style="stop-color:#DBF0FA"/>
	<stop  offset="1" style="stop-color:#7BC7EB"/>
</linearGradient>
<path fill="url(#SVGID_13_)" d="M1079,577.4c7.7-4.8,11-10.7,18.7-15.5c55.8-37.6,109.1-74.5,162.2-111.3v-96.2
	c-87.3,71.4-175.1,143.6-263.4,219c-2.1,1.4-6.2,2.9-8.2,4.3c-43.2,39.9-86.5,71.3-129.7,109.8c-37.1,29.9-72,58.5-109.1,89.8
	c-2.1,1.4-6.2,2.9-8.2,4.3c-36.1,31.9-72.3,61-108.9,91.2h19.5C795.5,774.9,931.3,677.7,1079,577.4z"/>
<linearGradient id="SVGID_14_" gradientUnits="userSpaceOnUse" x1="836.9854" y1="800.5457" x2="1151.4718" y2="536.3028">
	<stop  offset="0.2364" style="stop-color:#DBF0FA"/>
	<stop  offset="1" style="stop-color:#7BC7EB"/>
</linearGradient>
<path fill="url(#SVGID_14_)" d="M844.2,768.9c96.7-51.3,177-102.7,271.7-156.9c16.5-10,35-20,53.5-29.9c2.1-1.4,4.1-4.3,6.2-5.7
	c10.3-5.7,22.6-11.4,32.9-17.1c2.1-1.4,4.1-4.3,6.2-5.7c15.6-8.4,30.5-16.8,45.2-25.2v-77.6c-53.1,36.8-106.4,73.7-162.2,111.3
	c-7.7,4.8-11,10.7-18.7,15.5C931.3,677.7,795.5,774.9,651.9,872.9h15.9c56-32.5,110.4-65,170.2-98.3
	C840.1,773.2,842.1,770.3,844.2,768.9z"/>
<linearGradient id="SVGID_15_" gradientUnits="userSpaceOnUse" x1="857.6124" y1="703.4119" x2="1075.8971" y2="465.054">
	<stop  offset="0.2364" style="stop-color:#DBF0FA"/>
	<stop  offset="1" style="stop-color:#7BC7EB"/>
</linearGradient>
<path fill="url(#SVGID_15_)" d="M749.5,777.4c37.1-31.4,72-59.9,109.1-89.8c43.2-38.5,86.5-69.9,129.7-109.8
	c2.1-1.4,6.2-2.9,8.2-4.3c88.3-75.4,176.1-147.6,263.4-219V237.6c-88.6,89.9-173.7,173.5-264.8,264.7
	c-35.2,32.2-64.4,62.6-97.3,96.1c-96.1,92.4-185.6,183.2-278.2,274.4h12.7c36.6-30.2,72.7-59.3,108.9-91.2
	C743.3,780.3,747.4,778.9,749.5,777.4z"/>
<linearGradient id="SVGID_16_" gradientUnits="userSpaceOnUse" x1="737.0575" y1="843.6014" x2="1244.8654" y2="97.5337">
	<stop  offset="0.2364" style="stop-color:#DBF0FA"/>
	<stop  offset="1" style="stop-color:#7BC7EB"/>
</linearGradient>
<path fill="url(#SVGID_16_)" d="M995.1,502.3c91.1-91.2,176.2-174.8,264.8-264.7V89.1c-7.1,8.5-14.1,16.9-21.2,25.4
	c-12.8,15.4-25.6,30.7-38.4,46.1c-14.7,17.7-29.5,35.4-44.2,53.1c-16.5,19.8-33,39.6-49.5,59.4c-18.1,21.7-36.1,43.4-54.2,65.1
	c-19.5,23.4-38.9,46.7-58.4,70.1c-20.7,24.8-41.3,49.6-62,74.4c-21.7,26-43.4,52-65,78.1c-22.5,27-45,54-67.5,81.1
	c-23.2,27.8-46.3,55.6-69.5,83.4c-23.6,28.4-47.3,56.7-70.9,85.1c-17.4,20.9-34.9,41.9-52.3,62.8h12.9
	c92.6-91.2,182-182,278.2-274.4C930.7,565,959.9,534.6,995.1,502.3z"/>
<linearGradient id="SVGID_17_" gradientUnits="userSpaceOnUse" x1="863.7684" y1="808.222" x2="1136.7743" y2="611.6562">
	<stop  offset="0.2364" style="stop-color:#DBF0FA"/>
	<stop  offset="1" style="stop-color:#7BC7EB"/>
</linearGradient>
<path fill="url(#SVGID_17_)" d="M763.4,841.5c168.7-82.8,333.2-162.8,496.5-242.1v-71.1c-14.7,8.4-29.6,16.8-45.2,25.2
	c-2.1,1.4-4.1,4.3-6.2,5.7c-10.3,5.7-22.6,11.4-32.9,17.1c-2.1,1.4-4.1,4.3-6.2,5.7c-18.5,10-37.1,20-53.5,29.9
	c-94.7,54.2-175,105.5-271.7,156.9c-2.1,1.4-4.1,4.3-6.2,5.7c-59.8,33.4-114.2,65.8-170.2,98.3h27.3c11-5.2,22.1-10.3,33.2-15
	C739.9,851.5,751.6,846.5,763.4,841.5z"/>
<linearGradient id="SVGID_18_" gradientUnits="userSpaceOnUse" x1="762.4894" y1="897.6282" x2="1359.3922" y2="530.5189">
	<stop  offset="0.2364" style="stop-color:#DBF0FA"/>
	<stop  offset="1" style="stop-color:#7BC7EB"/>
</linearGradient>
<path fill="url(#SVGID_18_)" d="M932.7,787.4c59.7-22.8,115.3-45.6,175-68.5c51.4-20.7,102.1-41,152.2-61.1v-58.4
	c-163.3,79.3-327.8,159.3-496.5,242.1c-11.8,5-23.5,10-35.1,16.5c-11.1,4.7-22.1,9.8-33.2,15h26.4c9.9-3.8,19.8-7.6,30-11.3
	C813.3,835.9,870.9,813.1,932.7,787.4z"/>
<linearGradient id="SVGID_19_" gradientUnits="userSpaceOnUse" x1="1040.4779" y1="1020.5838" x2="1044.7773" y2="-97.1149">
	<stop  offset="0.2364" style="stop-color:#DBF0FA"/>
	<stop  offset="1" style="stop-color:#7BC7EB"/>
</linearGradient>
<path fill="url(#SVGID_19_)" d="M1259.9,762.7c-145.8,36.9-291.7,73.8-437.7,110.2h437.7V762.7z"/>
<linearGradient id="SVGID_20_" gradientUnits="userSpaceOnUse" x1="1041.8445" y1="789.2026" x2="1210.361" y2="694.9482">
	<stop  offset="0.2364" style="stop-color:#DBF0FA"/>
	<stop  offset="1" style="stop-color:#7BC7EB"/>
</linearGradient>
<path fill="url(#SVGID_20_)" d="M1259.9,657.9c-50.2,20.1-100.8,40.4-152.2,61.1c-59.7,22.8-115.3,45.6-175,68.5
	c-61.8,25.7-119.4,48.5-181.1,74.2c-10.2,3.8-20.2,7.5-30,11.3h100.7c146-36.5,291.9-73.3,437.7-110.2V657.9z"/>
<linearGradient id="SVGID_21_" gradientUnits="userSpaceOnUse" x1="659.4897" y1="877.2399" x2="974.197" y2="-48.9019">
	<stop  offset="0.2364" style="stop-color:#DBF0FA"/>
	<stop  offset="1" style="stop-color:#7BC7EB"/>
</linearGradient>
<path fill="url(#SVGID_21_)" d="M883.3,308.2c22.6-47.1,47.3-94.1,74.1-141.2c2.1-7.1,6.2-12.8,8.2-20
	c26.8-49.8,53.5-98.3,79.3-147.1H910.6c-111.5,291.2-223.9,581.9-337,872.9H586c88.9-165,171.8-328.6,260.3-494.8
	C856.5,353.9,870.9,332.5,883.3,308.2z"/>
<linearGradient id="SVGID_22_" gradientUnits="userSpaceOnUse" x1="631.785" y1="781.7149" x2="576.1611" y2="2.9769">
	<stop  offset="0.2364" style="stop-color:#DBF0FA"/>
	<stop  offset="1" style="stop-color:#7BC7EB"/>
</linearGradient>
<path fill="url(#SVGID_22_)" d="M658.7,50.4c1.9-17.1,3.9-33.9,5.8-50.4H549.7c0.1,290.8,0.1,582.2,0,872.9h4.6
	c30.8-252,63.4-497.4,94.1-757.5C651.8,93.8,655.3,72.1,658.7,50.4z"/>
<linearGradient id="SVGID_23_" gradientUnits="userSpaceOnUse" x1="485.6163" y1="779.1073" x2="429.6685" y2="-4.1659">
	<stop  offset="0.2364" style="stop-color:#DBF0FA"/>
	<stop  offset="1" style="stop-color:#7BC7EB"/>
</linearGradient>
<path fill="url(#SVGID_23_)" d="M549.7,0H310.2c74.3,290.8,148.7,581.2,222.1,872.9h17.4C549.8,582.2,549.8,290.8,549.7,0z"/>
<linearGradient id="SVGID_24_" gradientUnits="userSpaceOnUse" x1="705.3661" y1="910.1777" x2="649.8856" y2="133.4467">
	<stop  offset="0.2364" style="stop-color:#DBF0FA"/>
	<stop  offset="1" style="stop-color:#7BC7EB"/>
</linearGradient>
<path fill="url(#SVGID_24_)" d="M664.6,0c-2,16.5-3.9,33.3-5.8,50.4c-3.4,21.7-6.9,43.4-10.3,65.1c-30.7,260-63.3,505.5-94.1,757.5
	h12.9C642.4,581.2,714,290.8,788.8,0H664.6z"/>
<linearGradient id="SVGID_25_" gradientUnits="userSpaceOnUse" x1="756.9098" y1="806.5587" x2="1034.7235" y2="275.588">
	<stop  offset="0.2364" style="stop-color:#DBF0FA"/>
	<stop  offset="1" style="stop-color:#7BC7EB"/>
</linearGradient>
<path fill="url(#SVGID_25_)" d="M729.9,725.1c23.2-27.8,46.3-55.6,69.5-83.4c22.5-27,45-54,67.5-81.1c21.7-26,43.4-52,65-78.1
	c20.7-24.8,41.3-49.6,62-74.4c19.5-23.4,38.9-46.7,58.4-70.1c18.1-21.7,36.1-43.4,54.2-65.1c16.5-19.8,33-39.6,49.5-59.4
	c14.7-17.7,29.5-35.4,44.2-53.1c12.8-15.4,25.6-30.7,38.4-46.1c7.1-8.5,14.1-16.9,21.2-25.4V0h-78.7c-4.5,6.7-9.1,13.5-13.6,20.2
	c-7.8,11.7-15.7,23.3-23.5,35c-9.7,14.5-19.4,28.9-29.2,43.4c-11.5,17-22.9,34.1-34.4,51.1c-13,19.4-26.1,38.8-39.1,58.2
	c-14.5,21.5-28.9,43-43.4,64.5c-15.7,23.4-31.5,46.8-47.2,70.2c-16.8,25.1-33.7,50.1-50.5,75.2c-17.8,26.5-35.6,52.9-53.4,79.4
	c-18.6,27.7-37.2,55.3-55.8,83c-19.2,28.6-38.5,57.2-57.7,85.9c-19.7,29.4-39.5,58.7-59.2,88.1c-20.1,29.8-40.1,59.7-60.2,89.5
	c-6.5,9.7-13.1,19.5-19.6,29.2h12.1c17.4-20.9,34.9-41.9,52.3-62.8C682.7,781.8,706.3,753.4,729.9,725.1z"/>
<linearGradient id="SVGID_26_" gradientUnits="userSpaceOnUse" x1="735.6259" y1="793.4355" x2="946.3831" y2="285.0445">
	<stop  offset="0.2364" style="stop-color:#DBF0FA"/>
	<stop  offset="1" style="stop-color:#7BC7EB"/>
</linearGradient>
<path fill="url(#SVGID_26_)" d="M674.4,754.2c19.7-29.4,39.5-58.7,59.2-88.1c19.2-28.6,38.5-57.2,57.7-85.9
	c18.6-27.7,37.2-55.3,55.8-83c17.8-26.5,35.6-53,53.4-79.4c16.8-25.1,33.7-50.1,50.5-75.2c15.7-23.4,31.5-46.8,47.2-70.2
	c14.5-21.5,28.9-43,43.4-64.5c13-19.4,26.1-38.8,39.1-58.2c11.5-17,22.9-34.1,34.4-51.1c9.7-14.5,19.4-28.9,29.2-43.4
	c7.8-11.7,15.7-23.3,23.5-35c4.5-6.7,9.1-13.5,13.6-20.2h-136.3c-25.8,48.8-52.5,97.3-79.3,147.1c-2.1,7.1-6.2,12.8-8.2,20
	c-26.8,47.1-51.5,94.1-74.1,141.2c-12.4,24.2-26.8,45.6-37.1,69.9C757.8,544.3,674.9,707.9,586,872.9h8.6
	c6.5-9.7,13.1-19.5,19.6-29.2C634.3,813.9,654.3,784,674.4,754.2z"/>
<linearGradient id="SVGID_27_" gradientUnits="userSpaceOnUse" x1="651.5743" y1="723.2769" x2="779.9028" y2="254.8008">
	<stop  offset="0.2364" style="stop-color:#DBF0FA"/>
	<stop  offset="1" style="stop-color:#7BC7EB"/>
</linearGradient>
<path fill="url(#SVGID_27_)" d="M788.8,0C714,290.8,642.4,581.2,567.2,872.9h6.4C686.8,581.9,799.1,291.2,910.6,0H788.8z"/>
<linearGradient id="SVGID_28_" gradientUnits="userSpaceOnUse" x1="368.79" y1="625.583" x2="312.6873" y2="-159.8586">
	<stop  offset="0.2364" style="stop-color:#DBF0FA"/>
	<stop  offset="1" style="stop-color:#7BC7EB"/>
</linearGradient>
<path fill="url(#SVGID_28_)" d="M178.2,0c2.7,7.8,5.3,15.5,8,23.4c6.3,16.8,14.2,30.6,20.5,47.4c102.8,275.4,207.3,534.8,310,802.1
	h15.6C458.9,581.2,384.5,290.8,310.2,0H178.2z"/>
</svg>
