<!-- Generator: Adobe Illustrator 18.0.0, SVG Export Plug-In  -->
<svg version="1.1"
	 xmlns="http://www.w3.org/2000/svg" xmlns:xlink="http://www.w3.org/1999/xlink" xmlns:a="http://ns.adobe.com/AdobeSVGViewerExtensions/3.0/"
	 x="0px" y="0px" width="1683.4px" height="413.2px" viewBox="0 0 1683.4 413.2" enable-background="new 0 0 1683.4 413.2"
	 xml:space="preserve">
<defs>
</defs>
<g>
	
		<linearGradient id="SVGID_1_" gradientUnits="userSpaceOnUse" x1="943.5256" y1="4.692993e-10" x2="943.5256" y2="398.2788" gradientTransform="matrix(-1 0 0 1 1680.3877 0)">
		<stop  offset="0" style="stop-color:#FFFFFF"/>
		<stop  offset="0.9758" style="stop-color:#B9D6EF"/>
	</linearGradient>
	<path fill="url(#SVGID_1_)" d="M291.5,349.5c-7.8-6.6-13.5-14.8-16.5-24.9c-11.7-39.4,27.5-96.7,80.9-96.7c7.2,0,14.1,1,20.7,2.9
		c5.9-47.2,44.3-83.6,90.8-83.6c8.8,0,17.3,1.3,25.3,3.7c3-47.5,29.4-84.9,67.7-89.8c26.8-3.4,53.8,9.9,74.4,33.5
		C635.7,42.2,676.3,0,726.4,0c50.6,0,91.6,43.1,91.6,96.2c0,7.9-0.9,15.5-2.6,22.9c19-23.1,45.8-36.3,72.4-32.6
		c34.7,4.9,58.3,37,60.2,77c14.4-8.3,31-13.1,48.7-13.1c55,0,61.1,33.2,76.4,68.4c94.5-34,147.7,65.7,120.8,130.7H291.5z"/>
</g>
<linearGradient id="SVGID_2_" gradientUnits="userSpaceOnUse" x1="379.9831" y1="19.7011" x2="379.9831" y2="368.2208" gradientTransform="matrix(-1 0 0 1 1680.3877 0)">
	<stop  offset="0" style="stop-color:#FFFFFF"/>
	<stop  offset="0.9758" style="stop-color:#B9D6EF"/>
</linearGradient>
<path fill="url(#SVGID_2_)" d="M1090.9,312c-1.5-2.6-2.7-5.3-3.6-8.3c-10.8-34.4,25.3-84.6,74.3-84.6c6.6,0,13,0.9,19,2.5
	c5.4-41.3,40.7-73.2,83.4-73.2c8.1,0,15.8,1.2,23.2,3.3c2.8-41.6,27-74.3,62.2-78.6c24.7-3,49.4,8.6,68.3,29.3
	c0.8-45.8,38.1-82.7,84.1-82.7c4.6,0,9.1,0.4,13.4,1.1V312H1090.9z"/>
<g>
	
		<linearGradient id="SVGID_3_" gradientUnits="userSpaceOnUse" x1="525.545" y1="65.6091" x2="525.545" y2="446.6671" gradientTransform="matrix(-1 0 0 1 1680.3877 0)">
		<stop  offset="0" style="stop-color:#FFFFFF"/>
		<stop  offset="1" style="stop-color:#EFF6FB"/>
	</linearGradient>
	<path fill="url(#SVGID_3_)" d="M1683.4,413.2H626.3c15.8-12,51.3-16,67.2-11.4c-3-61.6,45-97.2,110.1-80.6
		c-5.6-47.7,12.2-99.4,50-132.9c18.8-16.7,111.7-48.7,111.3,3.9c4.3-24.1,8.9-49.5,19.3-72c39.8-85.9,171.3-65.8,171.6,28.4
		c57.2-33.9,153.6,27.5,130.7,90.5c14.2-38.9,90.1-45.4,126.2-32.2c51.5,18.7,122.4,69.8,111.9,128.8c0,0,0,0.1,0,0.1
		c44.3-32,161.5,15.7,118.7,72C1652.9,407.9,1668.1,409.5,1683.4,413.2z"/>
</g>
<g>
	
		<linearGradient id="SVGID_4_" gradientUnits="userSpaceOnUse" x1="869.6198" y1="203.7382" x2="1752.6433" y2="203.7382" gradientTransform="matrix(-1 0 0 1 1680.3877 0)">
		<stop  offset="0" style="stop-color:#FFFFFF"/>
		<stop  offset="1" style="stop-color:#EFF6FB"/>
	</linearGradient>
	<path fill="url(#SVGID_4_)" d="M0,240c12.4-2.9,25.3-2.3,37.8,3.1C4.9,171.3,125.3,32,193.7,119.2c11.2-41.2,46.8-74.1,95-77.8
		c21.1-1.6,46.2,2.2,62.8,14.9c8.4,6.4,38,46.2,26.7,56.4c94.7-85,240.8,73.1,216.1,88.6c14.8-9.3,31.8-14.6,49.9-14.6
		c41.6,0,77.3,27.7,93,67.4c1.7-0.1,3.4-0.2,5.1-0.2c42.6,0,75.3,46,67.1,79.8c-3.3,13.5-10.4,24.1-19.9,32.5H0V240z"/>
</g>
</svg>
